<?xml version="1.0" encoding="utf-8"?>
<!-- Generator: Adobe Illustrator 25.4.1, SVG Export Plug-In . SVG Version: 6.00 Build 0)  -->
<svg version="1.1" id="Camada_1" xmlns="http://www.w3.org/2000/svg" xmlns:xlink="http://www.w3.org/1999/xlink" x="0px" y="0px"
	 viewBox="0 0 256 256" enable-background="new 0 0 256 256" xml:space="preserve">
<g>
	<path fill="#FFFFFF" stroke="#000000" stroke-miterlimit="10" d="M4.5,239.5c0,6.6,5.4,12,12,12h223c6.6,0,12-5.4,12-12v-172H4.5
		V239.5z"/>
	<g>
		<path fill="#CCCCCC" stroke="#000000" stroke-miterlimit="10" d="M251.5,16.5c0-6.6-5.4-12-12-12h-122v63h134V16.5z"/>
		<path stroke="#000000" stroke-miterlimit="10" d="M16.5,4.5c-6.6,0-12,5.4-12,12v51h113v-63H16.5z"/>
	</g>
</g>
<g>
	<path d="M129.9,22.6h-1.4v-5.2c-0.5,0.5-1.1,0.8-1.8,1v-1.2c0.4-0.1,0.7-0.3,1.2-0.7s0.7-0.7,0.9-1.1h1.1V22.6z"/>
	<path d="M132.2,22.6v-1.4h1.4v1.4H132.2z"/>
	<path d="M139.6,22.6l-2.6-7.2h1.6l1.8,5.3l1.8-5.3h1.5l-2.6,7.2H139.6z"/>
	<path d="M149,19.9l1.4,0.4c-0.2,0.8-0.6,1.4-1.1,1.7c-0.5,0.4-1.1,0.6-1.9,0.6c-1,0-1.7-0.3-2.3-1s-0.9-1.5-0.9-2.7
		c0-1.2,0.3-2.1,0.9-2.8s1.4-1,2.4-1c0.9,0,1.6,0.3,2.1,0.8c0.3,0.3,0.6,0.7,0.7,1.3l-1.4,0.3c-0.1-0.4-0.3-0.7-0.5-0.9
		c-0.3-0.2-0.6-0.3-1-0.3c-0.5,0-1,0.2-1.3,0.6c-0.3,0.4-0.5,1-0.5,1.9c0,0.9,0.2,1.5,0.5,1.9s0.7,0.6,1.3,0.6c0.4,0,0.7-0.1,1-0.4
		S148.9,20.5,149,19.9z"/>
	<path d="M156.3,19.9l1.4,0.4c-0.2,0.8-0.6,1.4-1.1,1.7c-0.5,0.4-1.1,0.6-1.9,0.6c-1,0-1.7-0.3-2.3-1s-0.9-1.5-0.9-2.7
		c0-1.2,0.3-2.1,0.9-2.8s1.4-1,2.4-1c0.9,0,1.6,0.3,2.1,0.8c0.3,0.3,0.6,0.7,0.7,1.3l-1.4,0.3c-0.1-0.4-0.3-0.7-0.5-0.9
		c-0.3-0.2-0.6-0.3-1-0.3c-0.5,0-1,0.2-1.3,0.6c-0.3,0.4-0.5,1-0.5,1.9c0,0.9,0.2,1.5,0.5,1.9s0.7,0.6,1.3,0.6c0.4,0,0.7-0.1,1-0.4
		S156.1,20.5,156.3,19.9z"/>
	<path d="M131,33.3v1.3h-4.8c0.1-0.5,0.2-0.9,0.5-1.4s0.8-1,1.5-1.7c0.6-0.6,1-1,1.1-1.2c0.2-0.3,0.3-0.6,0.3-0.8
		c0-0.3-0.1-0.5-0.2-0.7c-0.2-0.2-0.4-0.2-0.7-0.2c-0.3,0-0.5,0.1-0.7,0.3s-0.3,0.5-0.3,0.9l-1.4-0.1c0.1-0.8,0.3-1.3,0.8-1.6
		s1-0.5,1.6-0.5c0.7,0,1.3,0.2,1.7,0.6s0.6,0.9,0.6,1.4c0,0.3-0.1,0.6-0.2,0.9c-0.1,0.3-0.3,0.6-0.5,0.9c-0.2,0.2-0.5,0.5-0.9,0.9
		s-0.7,0.7-0.8,0.8c-0.1,0.1-0.2,0.3-0.3,0.4H131z"/>
	<path d="M132.2,34.6v-1.4h1.4v1.4H132.2z"/>
	<path d="M141.1,31.9v-1.2h3.1v2.9c-0.3,0.3-0.7,0.6-1.3,0.8c-0.6,0.2-1.2,0.3-1.7,0.3c-0.7,0-1.4-0.2-2-0.5s-1-0.8-1.3-1.3
		s-0.4-1.2-0.4-1.9c0-0.7,0.2-1.4,0.5-2s0.8-1,1.4-1.3c0.5-0.2,1-0.4,1.7-0.4c0.9,0,1.6,0.2,2.1,0.6c0.5,0.4,0.8,0.9,1,1.5l-1.4,0.3
		c-0.1-0.4-0.3-0.6-0.6-0.8c-0.3-0.2-0.6-0.3-1-0.3c-0.6,0-1.1,0.2-1.5,0.6c-0.4,0.4-0.6,1-0.6,1.8c0,0.8,0.2,1.5,0.6,1.9
		s0.9,0.6,1.5,0.6c0.3,0,0.6-0.1,0.9-0.2c0.3-0.1,0.6-0.3,0.8-0.4v-0.9H141.1z"/>
	<path d="M145.6,34.6v-7.2h1.4l2.9,4.8v-4.8h1.3v7.2h-1.5l-2.9-4.7v4.7H145.6z"/>
	<path d="M152.8,27.4h2.6c0.6,0,1,0,1.4,0.1c0.4,0.1,0.8,0.3,1.1,0.7s0.5,0.7,0.7,1.2s0.2,1,0.2,1.7c0,0.6-0.1,1.1-0.2,1.5
		c-0.2,0.5-0.4,0.9-0.8,1.3c-0.3,0.2-0.6,0.4-1,0.6c-0.3,0.1-0.7,0.2-1.3,0.2h-2.7V27.4z M154.2,28.6v4.7h1.1c0.4,0,0.7,0,0.9-0.1
		c0.2-0.1,0.4-0.2,0.6-0.3c0.2-0.1,0.3-0.4,0.4-0.7s0.1-0.8,0.1-1.3s0-1-0.1-1.3s-0.2-0.5-0.4-0.7s-0.4-0.3-0.7-0.3
		c-0.2,0-0.6-0.1-1.2-0.1H154.2z"/>
	<path d="M126.4,44.7l1.4-0.1c0,0.3,0.2,0.6,0.3,0.7s0.4,0.3,0.7,0.3c0.3,0,0.5-0.1,0.7-0.3s0.3-0.6,0.3-1.1c0-0.4-0.1-0.8-0.3-1
		c-0.2-0.2-0.5-0.3-0.8-0.3c-0.4,0-0.7,0.2-1.1,0.5l-1.1-0.2l0.7-3.7h3.6v1.3h-2.6l-0.2,1.2c0.3-0.2,0.6-0.2,0.9-0.2
		c0.6,0,1.1,0.2,1.5,0.7s0.6,1,0.6,1.7c0,0.6-0.2,1.1-0.5,1.6c-0.5,0.6-1.1,0.9-1.9,0.9c-0.7,0-1.2-0.2-1.6-0.5
		S126.5,45.3,126.4,44.7z"/>
	<path d="M132.2,46.6v-1.4h1.4v1.4H132.2z"/>
	<path d="M138.8,46.6l-1.7-7.2h1.5l1.1,4.9l1.3-4.9h1.7l1.3,5l1.1-5h1.5l-1.7,7.2h-1.5l-1.4-5.4l-1.4,5.4H138.8z"/>
	<path d="M147.9,43l-1.2-0.2c0.1-0.5,0.4-0.9,0.7-1.1s0.8-0.4,1.5-0.4c0.6,0,1.1,0.1,1.4,0.2s0.5,0.3,0.6,0.6
		c0.1,0.2,0.2,0.6,0.2,1.2l0,1.6c0,0.5,0,0.8,0.1,1c0,0.2,0.1,0.4,0.2,0.7H150c0-0.1-0.1-0.2-0.1-0.4c0-0.1,0-0.1,0-0.2
		c-0.2,0.2-0.5,0.4-0.8,0.5s-0.6,0.2-0.9,0.2c-0.5,0-1-0.1-1.3-0.4c-0.3-0.3-0.5-0.7-0.5-1.1c0-0.3,0.1-0.6,0.2-0.8s0.3-0.4,0.6-0.5
		c0.3-0.1,0.6-0.2,1.1-0.3c0.6-0.1,1.1-0.2,1.3-0.3v-0.1c0-0.3-0.1-0.5-0.2-0.6s-0.4-0.2-0.7-0.2c-0.2,0-0.4,0-0.6,0.1
		S148,42.7,147.9,43z M149.7,44.1c-0.2,0.1-0.5,0.1-0.8,0.2s-0.6,0.2-0.7,0.2c-0.2,0.1-0.3,0.3-0.3,0.5c0,0.2,0.1,0.4,0.2,0.5
		s0.3,0.2,0.5,0.2c0.2,0,0.5-0.1,0.7-0.2c0.2-0.1,0.3-0.3,0.3-0.5c0-0.1,0.1-0.3,0.1-0.7V44.1z"/>
	<path d="M152.4,46.6v-7.2h1.4v3.8l1.6-1.8h1.7l-1.8,1.9l1.9,3.3h-1.5l-1.3-2.3l-0.6,0.7v1.7H152.4z"/>
	<path d="M161,44.9l1.4,0.2c-0.2,0.5-0.5,0.9-0.8,1.1c-0.4,0.3-0.9,0.4-1.4,0.4c-0.9,0-1.6-0.3-2-0.9c-0.3-0.5-0.5-1.1-0.5-1.8
		c0-0.9,0.2-1.5,0.7-2s1-0.7,1.7-0.7c0.8,0,1.4,0.3,1.8,0.8s0.7,1.3,0.6,2.3H159c0,0.4,0.1,0.7,0.3,0.9s0.5,0.3,0.8,0.3
		c0.2,0,0.4-0.1,0.5-0.2S160.9,45.2,161,44.9z M161,43.5c0-0.4-0.1-0.7-0.3-0.9s-0.4-0.3-0.7-0.3c-0.3,0-0.5,0.1-0.7,0.3
		s-0.3,0.5-0.3,0.9H161z"/>
	<path d="M166.3,39.4h1.4v3.9c0,0.6,0,1,0.1,1.2c0.1,0.3,0.2,0.5,0.4,0.7c0.2,0.2,0.6,0.3,1,0.3c0.4,0,0.7-0.1,0.9-0.3
		s0.3-0.4,0.4-0.6s0.1-0.6,0.1-1.2v-4h1.4v3.8c0,0.9,0,1.5-0.1,1.8s-0.2,0.7-0.4,0.9c-0.2,0.2-0.5,0.4-0.8,0.6s-0.8,0.2-1.4,0.2
		c-0.7,0-1.2-0.1-1.6-0.2c-0.4-0.2-0.6-0.4-0.8-0.6s-0.3-0.5-0.4-0.8c-0.1-0.4-0.1-1-0.1-1.8V39.4z"/>
	<path d="M173.5,46.6v-7.2h2.3c0.9,0,1.5,0,1.7,0.1c0.4,0.1,0.8,0.3,1,0.7s0.4,0.8,0.4,1.4c0,0.4-0.1,0.8-0.2,1.1s-0.4,0.5-0.6,0.7
		c-0.2,0.2-0.5,0.3-0.7,0.3c-0.3,0.1-0.8,0.1-1.5,0.1H175v2.7H173.5z M175,40.6v2h0.8c0.6,0,1,0,1.1-0.1s0.3-0.2,0.5-0.4
		c0.1-0.2,0.2-0.3,0.2-0.6c0-0.3-0.1-0.5-0.2-0.6s-0.3-0.3-0.6-0.3c-0.2,0-0.5,0-1,0H175z"/>
	<path d="M131,53.2l-1.3,0.1c0-0.3-0.1-0.5-0.3-0.6s-0.3-0.2-0.5-0.2c-0.3,0-0.5,0.1-0.7,0.4c-0.2,0.3-0.3,0.8-0.4,1.6
		c0.3-0.4,0.8-0.6,1.3-0.6c0.6,0,1.1,0.2,1.5,0.7c0.4,0.4,0.6,1,0.6,1.7c0,0.7-0.2,1.3-0.6,1.8s-1,0.7-1.7,0.7
		c-0.7,0-1.3-0.3-1.8-0.8c-0.5-0.6-0.7-1.5-0.7-2.8c0-1.3,0.2-2.3,0.7-2.8s1.1-0.9,1.9-0.9c0.5,0,1,0.2,1.4,0.5
		C130.7,52.1,130.9,52.6,131,53.2z M127.9,56.2c0,0.4,0.1,0.8,0.3,1c0.2,0.2,0.4,0.4,0.7,0.4c0.3,0,0.5-0.1,0.6-0.3s0.3-0.5,0.3-1
		c0-0.5-0.1-0.8-0.3-1c-0.2-0.2-0.4-0.3-0.7-0.3c-0.3,0-0.5,0.1-0.7,0.3C128,55.5,127.9,55.8,127.9,56.2z"/>
	<path d="M132.2,58.6v-1.4h1.4v1.4H132.2z"/>
	<path d="M137.8,58.6v-7.2h2.3c0.9,0,1.5,0,1.7,0.1c0.4,0.1,0.8,0.3,1,0.7s0.4,0.8,0.4,1.4c0,0.4-0.1,0.8-0.2,1.1s-0.4,0.5-0.6,0.7
		c-0.2,0.2-0.5,0.3-0.7,0.3c-0.3,0.1-0.8,0.1-1.5,0.1h-0.9v2.7H137.8z M139.2,52.6v2h0.8c0.6,0,1,0,1.1-0.1c0.2-0.1,0.3-0.2,0.5-0.4
		c0.1-0.2,0.2-0.3,0.2-0.6c0-0.3-0.1-0.5-0.2-0.6s-0.3-0.3-0.6-0.3c-0.2,0-0.5,0-1,0H139.2z"/>
	<path d="M145.8,58.6h-1.4v-5.2h1.3v0.7c0.2-0.3,0.4-0.6,0.6-0.7c0.2-0.1,0.4-0.2,0.6-0.2c0.3,0,0.6,0.1,0.9,0.3l-0.4,1.2
		c-0.2-0.1-0.4-0.2-0.6-0.2c-0.2,0-0.4,0.1-0.5,0.2c-0.1,0.1-0.2,0.3-0.3,0.6c-0.1,0.3-0.1,0.9-0.1,1.7V58.6z"/>
	<path d="M148,55.9c0-0.5,0.1-0.9,0.3-1.3c0.2-0.4,0.5-0.8,1-1c0.4-0.2,0.9-0.3,1.4-0.3c0.8,0,1.4,0.3,1.9,0.8
		c0.5,0.5,0.8,1.2,0.8,1.9c0,0.8-0.3,1.4-0.8,2c-0.5,0.5-1.1,0.8-1.9,0.8c-0.5,0-0.9-0.1-1.4-0.3c-0.4-0.2-0.8-0.5-1-0.9
		C148.1,57,148,56.5,148,55.9z M149.4,56c0,0.5,0.1,0.9,0.4,1.2s0.5,0.4,0.9,0.4s0.7-0.1,0.9-0.4c0.2-0.3,0.4-0.7,0.4-1.2
		c0-0.5-0.1-0.9-0.4-1.2c-0.2-0.3-0.5-0.4-0.9-0.4s-0.7,0.1-0.9,0.4S149.4,55.5,149.4,56z"/>
	<path d="M154.3,58.9l1.6,0.2c0,0.2,0.1,0.3,0.2,0.4c0.1,0.1,0.3,0.1,0.6,0.1c0.4,0,0.6-0.1,0.8-0.2c0.1-0.1,0.2-0.2,0.3-0.3
		c0-0.1,0.1-0.3,0.1-0.6v-0.8c-0.4,0.6-0.9,0.8-1.6,0.8c-0.7,0-1.2-0.3-1.7-0.9c-0.3-0.5-0.5-1-0.5-1.7c0-0.9,0.2-1.5,0.6-2
		c0.4-0.5,0.9-0.7,1.6-0.7c0.6,0,1.2,0.3,1.6,0.8v-0.7h1.3V58c0,0.6-0.1,1.1-0.2,1.4s-0.2,0.5-0.4,0.7s-0.4,0.3-0.7,0.4
		c-0.3,0.1-0.7,0.1-1.2,0.1c-0.9,0-1.5-0.2-1.9-0.5c-0.4-0.3-0.6-0.7-0.6-1.1C154.3,59,154.3,59,154.3,58.9z M155.5,55.9
		c0,0.5,0.1,1,0.3,1.2c0.2,0.3,0.5,0.4,0.8,0.4c0.3,0,0.6-0.1,0.8-0.4c0.2-0.3,0.3-0.6,0.3-1.2c0-0.5-0.1-0.9-0.3-1.2
		c-0.2-0.3-0.5-0.4-0.8-0.4c-0.3,0-0.6,0.1-0.8,0.4C155.7,55,155.5,55.3,155.5,55.9z"/>
	<path d="M161.9,58.6h-1.4v-5.2h1.3v0.7c0.2-0.3,0.4-0.6,0.6-0.7c0.2-0.1,0.4-0.2,0.6-0.2c0.3,0,0.6,0.1,0.9,0.3l-0.4,1.2
		c-0.2-0.1-0.4-0.2-0.6-0.2c-0.2,0-0.4,0.1-0.5,0.2c-0.1,0.1-0.2,0.3-0.3,0.6c-0.1,0.3-0.1,0.9-0.1,1.7V58.6z"/>
	<path d="M165.5,55l-1.2-0.2c0.1-0.5,0.4-0.9,0.7-1.1s0.8-0.4,1.5-0.4c0.6,0,1.1,0.1,1.4,0.2s0.5,0.3,0.6,0.6
		c0.1,0.2,0.2,0.6,0.2,1.2l0,1.6c0,0.5,0,0.8,0.1,1c0,0.2,0.1,0.4,0.2,0.7h-1.4c0-0.1-0.1-0.2-0.1-0.4c0-0.1,0-0.1,0-0.2
		c-0.2,0.2-0.5,0.4-0.8,0.5s-0.6,0.2-0.9,0.2c-0.5,0-1-0.1-1.3-0.4c-0.3-0.3-0.5-0.7-0.5-1.1c0-0.3,0.1-0.6,0.2-0.8
		c0.1-0.2,0.3-0.4,0.6-0.5c0.3-0.1,0.6-0.2,1.1-0.3c0.6-0.1,1.1-0.2,1.3-0.3v-0.1c0-0.3-0.1-0.5-0.2-0.6c-0.1-0.1-0.4-0.2-0.7-0.2
		c-0.2,0-0.4,0-0.6,0.1C165.7,54.6,165.6,54.7,165.5,55z M167.3,56.1c-0.2,0.1-0.5,0.1-0.8,0.2s-0.6,0.2-0.7,0.2
		c-0.2,0.1-0.3,0.3-0.3,0.5c0,0.2,0.1,0.4,0.2,0.5s0.3,0.2,0.5,0.2c0.2,0,0.5-0.1,0.7-0.2c0.2-0.1,0.3-0.3,0.3-0.5
		c0-0.1,0.1-0.3,0.1-0.7V56.1z"/>
	<path d="M169.9,53.4h1.3v0.7c0.5-0.6,1-0.8,1.6-0.8c0.3,0,0.6,0.1,0.9,0.2s0.4,0.3,0.6,0.6c0.2-0.3,0.5-0.5,0.7-0.6
		s0.5-0.2,0.8-0.2c0.4,0,0.7,0.1,1,0.2s0.5,0.4,0.6,0.7c0.1,0.2,0.1,0.6,0.1,1.1v3.3h-1.4v-3c0-0.5,0-0.8-0.1-1
		c-0.1-0.2-0.3-0.3-0.6-0.3c-0.2,0-0.4,0.1-0.5,0.2s-0.3,0.3-0.4,0.5c-0.1,0.2-0.1,0.6-0.1,1.1v2.5H173v-2.8c0-0.5,0-0.8-0.1-1
		s-0.1-0.3-0.2-0.3c-0.1-0.1-0.2-0.1-0.4-0.1c-0.2,0-0.4,0.1-0.6,0.2s-0.3,0.3-0.4,0.5c-0.1,0.2-0.1,0.6-0.1,1.1v2.5h-1.4V53.4z"/>
	<path d="M178.8,53.4h1.3v0.7c0.5-0.6,1-0.8,1.6-0.8c0.3,0,0.6,0.1,0.9,0.2s0.4,0.3,0.6,0.6c0.2-0.3,0.5-0.5,0.7-0.6
		s0.5-0.2,0.8-0.2c0.4,0,0.7,0.1,1,0.2s0.5,0.4,0.6,0.7c0.1,0.2,0.1,0.6,0.1,1.1v3.3h-1.4v-3c0-0.5,0-0.8-0.1-1
		c-0.1-0.2-0.3-0.3-0.6-0.3c-0.2,0-0.4,0.1-0.5,0.2s-0.3,0.3-0.4,0.5c-0.1,0.2-0.1,0.6-0.1,1.1v2.5h-1.4v-2.8c0-0.5,0-0.8-0.1-1
		s-0.1-0.3-0.2-0.3c-0.1-0.1-0.2-0.1-0.4-0.1c-0.2,0-0.4,0.1-0.6,0.2s-0.3,0.3-0.4,0.5c-0.1,0.2-0.1,0.6-0.1,1.1v2.5h-1.4V53.4z"/>
	<path d="M190.8,56.9l1.4,0.2c-0.2,0.5-0.5,0.9-0.8,1.1c-0.4,0.3-0.9,0.4-1.4,0.4c-0.9,0-1.6-0.3-2-0.9c-0.3-0.5-0.5-1.1-0.5-1.8
		c0-0.9,0.2-1.5,0.7-2s1-0.7,1.7-0.7c0.8,0,1.4,0.3,1.8,0.8c0.4,0.5,0.7,1.3,0.6,2.3h-3.4c0,0.4,0.1,0.7,0.3,0.9
		c0.2,0.2,0.5,0.3,0.8,0.3c0.2,0,0.4-0.1,0.5-0.2S190.7,57.2,190.8,56.9z M190.9,55.5c0-0.4-0.1-0.7-0.3-0.9
		c-0.2-0.2-0.4-0.3-0.7-0.3c-0.3,0-0.5,0.1-0.7,0.3s-0.3,0.5-0.3,0.9H190.9z"/>
	<path d="M194.7,58.6h-1.4v-5.2h1.3v0.7c0.2-0.3,0.4-0.6,0.6-0.7c0.2-0.1,0.4-0.2,0.6-0.2c0.3,0,0.6,0.1,0.9,0.3l-0.4,1.2
		c-0.2-0.1-0.4-0.2-0.6-0.2c-0.2,0-0.4,0.1-0.5,0.2c-0.1,0.1-0.2,0.3-0.3,0.6c-0.1,0.3-0.1,0.9-0.1,1.7V58.6z"/>
</g>
<g>
	<path fill="#FFFFFF" d="M13.9,13h2v5.4c0,0.9,0,1.4,0.1,1.7c0.1,0.4,0.3,0.7,0.6,1c0.3,0.2,0.8,0.4,1.3,0.4c0.6,0,1-0.1,1.3-0.4
		s0.5-0.5,0.5-0.9s0.1-0.9,0.1-1.7V13h2v5.3c0,1.2-0.1,2.1-0.2,2.5s-0.3,0.9-0.6,1.3c-0.3,0.3-0.7,0.6-1.2,0.8s-1.1,0.3-1.9,0.3
		c-1,0-1.7-0.1-2.2-0.3c-0.5-0.2-0.9-0.5-1.2-0.9s-0.5-0.7-0.6-1.1c-0.1-0.6-0.2-1.4-0.2-2.5V13z"/>
	<path fill="#FFFFFF" d="M33.1,23h-2.2L30,20.7h-4L25.2,23h-2.1L27,13h2.1L33.1,23z M29.4,19.1L28,15.3l-1.4,3.7H29.4z"/>
	<path fill="#FFFFFF" d="M34.2,23V13h4.3c1.1,0,1.8,0.1,2.3,0.3c0.5,0.2,0.9,0.5,1.2,1s0.4,1,0.4,1.6c0,0.8-0.2,1.4-0.7,1.9
		s-1.1,0.8-2,0.9c0.4,0.3,0.8,0.5,1.1,0.8c0.3,0.3,0.7,0.8,1.2,1.6l1.2,2h-2.4l-1.5-2.2c-0.5-0.8-0.9-1.3-1.1-1.5S37.9,19,37.6,19
		s-0.6-0.1-1-0.1h-0.4V23H34.2z M36.2,17.2h1.5c1,0,1.6,0,1.8-0.1s0.4-0.2,0.6-0.4s0.2-0.5,0.2-0.8c0-0.3-0.1-0.6-0.3-0.8
		c-0.2-0.2-0.4-0.3-0.8-0.4c-0.2,0-0.7,0-1.5,0h-1.6V17.2z"/>
	<path fill="#FFFFFF" d="M46.5,23v-8.3h-3V13h8v1.7h-3V23H46.5z"/>
	<path fill="#FFFFFF" d="M13.6,40.4l1.2,0.2c0,0.4,0.2,0.6,0.4,0.8c0.3,0.2,0.7,0.3,1.3,0.3c0.6,0,1-0.1,1.3-0.3s0.5-0.5,0.6-1
		c0.1-0.3,0.1-0.8,0.1-1.6c-0.5,0.6-1.2,1-2,1c-1,0-1.8-0.4-2.3-1.1s-0.8-1.6-0.8-2.6c0-0.7,0.1-1.3,0.4-1.9s0.6-1,1.1-1.4
		c0.5-0.3,1-0.5,1.7-0.5c0.9,0,1.6,0.3,2.1,1v-0.9h1.1v6.3c0,1.1-0.1,1.9-0.3,2.4c-0.2,0.5-0.6,0.8-1.1,1.1
		c-0.5,0.3-1.1,0.4-1.8,0.4c-0.9,0-1.6-0.2-2.1-0.6S13.6,41.2,13.6,40.4z M14.7,36.1c0,1,0.2,1.6,0.6,2.1s0.9,0.7,1.4,0.7
		c0.6,0,1-0.2,1.4-0.7s0.6-1.1,0.6-2c0-0.9-0.2-1.6-0.6-2c-0.4-0.5-0.9-0.7-1.4-0.7c-0.5,0-1,0.2-1.4,0.7S14.7,35.2,14.7,36.1z"/>
	<path fill="#FFFFFF" d="M20.8,39.8l2.7-3.8L21,32.6h1.5l1.1,1.7c0.2,0.3,0.4,0.6,0.5,0.8c0.2-0.3,0.4-0.6,0.6-0.8l1.2-1.7h1.5
		L24.9,36l2.7,3.8h-1.5l-1.5-2.3L24.2,37l-1.9,2.9H20.8z"/>
	<path fill="#FFFFFF" d="M37.3,37.2l1.2,0.2c-0.1,0.8-0.5,1.5-1,2c-0.5,0.5-1.2,0.7-2,0.7c-1,0-1.8-0.3-2.4-1
		c-0.6-0.6-0.9-1.6-0.9-2.8c0-0.8,0.1-1.5,0.4-2.1s0.7-1,1.2-1.3c0.5-0.3,1.1-0.4,1.7-0.4c0.8,0,1.4,0.2,1.9,0.6s0.8,1,1,1.7
		l-1.2,0.2c-0.1-0.5-0.3-0.9-0.6-1.1c-0.3-0.2-0.6-0.4-1-0.4c-0.6,0-1.1,0.2-1.5,0.7s-0.6,1.1-0.6,2.1c0,1,0.2,1.7,0.6,2.1
		s0.9,0.7,1.5,0.7c0.5,0,0.9-0.1,1.2-0.4S37.2,37.8,37.3,37.2z"/>
	<path fill="#FFFFFF" d="M39.1,36.2c0-1.3,0.4-2.3,1.1-3c0.6-0.5,1.4-0.8,2.3-0.8c1,0,1.8,0.3,2.4,1s1,1.6,1,2.7
		c0,0.9-0.1,1.7-0.4,2.2c-0.3,0.5-0.7,1-1.2,1.2c-0.5,0.3-1.1,0.4-1.8,0.4c-1,0-1.8-0.3-2.5-1C39.4,38.4,39.1,37.4,39.1,36.2z
		 M40.3,36.2c0,0.9,0.2,1.6,0.6,2.1s0.9,0.7,1.5,0.7c0.6,0,1.1-0.2,1.5-0.7s0.6-1.2,0.6-2.1c0-0.9-0.2-1.6-0.6-2
		c-0.4-0.5-0.9-0.7-1.5-0.7c-0.6,0-1.1,0.2-1.5,0.7S40.3,35.3,40.3,36.2z"/>
	<path fill="#FFFFFF" d="M47.3,39.8v-7.3h1.1v1c0.5-0.8,1.3-1.2,2.3-1.2c0.4,0,0.8,0.1,1.2,0.2c0.4,0.2,0.6,0.4,0.8,0.6
		s0.3,0.6,0.4,0.9c0,0.2,0.1,0.6,0.1,1.2v4.5H52v-4.4c0-0.5,0-0.9-0.1-1.1s-0.3-0.4-0.5-0.6c-0.2-0.1-0.5-0.2-0.9-0.2
		c-0.5,0-1,0.2-1.4,0.5c-0.4,0.3-0.6,1-0.6,1.9v4H47.3z"/>
	<path fill="#FFFFFF" d="M55.1,39.8v-7.3h1.1v1c0.5-0.8,1.3-1.2,2.3-1.2c0.4,0,0.8,0.1,1.2,0.2c0.4,0.2,0.6,0.4,0.8,0.6
		s0.3,0.6,0.4,0.9c0,0.2,0.1,0.6,0.1,1.2v4.5h-1.2v-4.4c0-0.5,0-0.9-0.1-1.1s-0.3-0.4-0.5-0.6c-0.2-0.1-0.5-0.2-0.9-0.2
		c-0.5,0-1,0.2-1.4,0.5c-0.4,0.3-0.6,1-0.6,1.9v4H55.1z"/>
	<path fill="#FFFFFF" d="M67.9,37.5l1.3,0.2c-0.2,0.7-0.6,1.3-1.1,1.7S66.8,40,65.9,40c-1.1,0-1.9-0.3-2.5-1
		c-0.6-0.7-0.9-1.6-0.9-2.8c0-1.2,0.3-2.2,0.9-2.8s1.4-1,2.4-1c1,0,1.8,0.3,2.4,1s0.9,1.6,0.9,2.8c0,0.1,0,0.2,0,0.3h-5.4
		c0,0.8,0.3,1.4,0.7,1.8S65.3,39,66,39c0.5,0,0.8-0.1,1.2-0.4S67.7,38,67.9,37.5z M63.8,35.5h4.1c-0.1-0.6-0.2-1.1-0.5-1.4
		c-0.4-0.5-0.9-0.7-1.5-0.7c-0.6,0-1,0.2-1.4,0.6C64.1,34.4,63.9,34.9,63.8,35.5z"/>
	<path fill="#FFFFFF" d="M75.4,37.2l1.2,0.2c-0.1,0.8-0.5,1.5-1,2c-0.5,0.5-1.2,0.7-2,0.7c-1,0-1.8-0.3-2.4-1
		c-0.6-0.6-0.9-1.6-0.9-2.8c0-0.8,0.1-1.5,0.4-2.1s0.7-1,1.2-1.3c0.5-0.3,1.1-0.4,1.7-0.4c0.8,0,1.4,0.2,1.9,0.6s0.8,1,1,1.7
		l-1.2,0.2c-0.1-0.5-0.3-0.9-0.6-1.1c-0.3-0.2-0.6-0.4-1-0.4c-0.6,0-1.1,0.2-1.5,0.7s-0.6,1.1-0.6,2.1c0,1,0.2,1.7,0.6,2.1
		S73,39,73.6,39c0.5,0,0.9-0.1,1.2-0.4S75.3,37.8,75.4,37.2z"/>
	<path fill="#FFFFFF" d="M80.4,38.7l0.2,1.1c-0.3,0.1-0.7,0.1-0.9,0.1c-0.4,0-0.8-0.1-1-0.2s-0.4-0.3-0.5-0.6s-0.2-0.7-0.2-1.5v-4.2
		H77v-1h0.9v-1.8l1.2-0.7v2.5h1.2v1h-1.2v4.2c0,0.4,0,0.6,0.1,0.7c0,0.1,0.1,0.2,0.2,0.2c0.1,0.1,0.2,0.1,0.4,0.1
		C80,38.8,80.1,38.8,80.4,38.7z"/>
	<path fill="#FFFFFF" d="M81.1,36.2c0-1.3,0.4-2.3,1.1-3c0.6-0.5,1.4-0.8,2.3-0.8c1,0,1.8,0.3,2.4,1s1,1.6,1,2.7
		c0,0.9-0.1,1.7-0.4,2.2c-0.3,0.5-0.7,1-1.2,1.2c-0.5,0.3-1.1,0.4-1.8,0.4c-1,0-1.8-0.3-2.5-1C81.4,38.4,81.1,37.4,81.1,36.2z
		 M82.4,36.2c0,0.9,0.2,1.6,0.6,2.1s0.9,0.7,1.5,0.7c0.6,0,1.1-0.2,1.5-0.7s0.6-1.2,0.6-2.1c0-0.9-0.2-1.6-0.6-2
		c-0.4-0.5-0.9-0.7-1.5-0.7c-0.6,0-1.1,0.2-1.5,0.7S82.4,35.3,82.4,36.2z"/>
	<path fill="#FFFFFF" d="M89.3,39.8v-7.3h1.1v1.1c0.3-0.5,0.5-0.9,0.8-1c0.2-0.2,0.5-0.2,0.8-0.2c0.4,0,0.8,0.1,1.3,0.4l-0.4,1.1
		c-0.3-0.2-0.6-0.3-0.9-0.3c-0.3,0-0.5,0.1-0.7,0.2s-0.4,0.4-0.5,0.7c-0.1,0.4-0.2,0.9-0.2,1.4v3.8H89.3z"/>
	<path fill="#FFFFFF" d="M19.9,49.1l-1.2,0.1c-0.1-0.5-0.3-0.8-0.5-1.1c-0.3-0.4-0.7-0.5-1.2-0.5c-0.4,0-0.7,0.1-1,0.3
		c-0.4,0.3-0.7,0.7-0.9,1.2s-0.3,1.3-0.3,2.3c0.3-0.5,0.7-0.8,1.1-1s0.9-0.3,1.3-0.3c0.8,0,1.5,0.3,2.1,0.9c0.6,0.6,0.9,1.4,0.9,2.3
		c0,0.6-0.1,1.2-0.4,1.8c-0.3,0.5-0.6,1-1.1,1.2s-1,0.4-1.6,0.4c-1,0-1.9-0.4-2.5-1.1s-1-2-1-3.7c0-1.9,0.4-3.3,1.1-4.2
		c0.6-0.8,1.5-1.1,2.5-1.1c0.8,0,1.4,0.2,1.9,0.7C19.5,47.7,19.8,48.3,19.9,49.1z M14.9,53.4c0,0.4,0.1,0.8,0.3,1.2
		c0.2,0.4,0.4,0.7,0.8,0.9s0.7,0.3,1,0.3c0.5,0,1-0.2,1.3-0.6s0.6-1,0.6-1.7c0-0.7-0.2-1.2-0.6-1.6s-0.8-0.6-1.4-0.6
		c-0.6,0-1,0.2-1.4,0.6S14.9,52.7,14.9,53.4z"/>
	<path fill="#FFFFFF" d="M25.5,59.4v-10h1.1v0.9c0.3-0.4,0.6-0.6,0.9-0.8s0.7-0.3,1.2-0.3c0.6,0,1.2,0.2,1.6,0.5s0.8,0.8,1.1,1.4
		s0.4,1.2,0.4,1.9c0,0.7-0.1,1.4-0.4,2c-0.3,0.6-0.7,1.1-1.2,1.4c-0.5,0.3-1,0.5-1.6,0.5c-0.4,0-0.8-0.1-1.1-0.3
		c-0.3-0.2-0.6-0.4-0.8-0.7v3.5H25.5z M26.7,53c0,0.9,0.2,1.6,0.6,2.1s0.8,0.7,1.4,0.7c0.5,0,1-0.2,1.4-0.7c0.4-0.5,0.6-1.2,0.6-2.1
		c0-0.9-0.2-1.6-0.6-2.1c-0.4-0.5-0.8-0.7-1.4-0.7c-0.5,0-1,0.2-1.4,0.7C26.9,51.4,26.7,52.1,26.7,53z"/>
	<path fill="#FFFFFF" d="M33.3,48v-1.4h1.2V48H33.3z M33.3,56.6v-7.3h1.2v7.3H33.3z"/>
	<path fill="#FFFFFF" d="M36.4,56.6v-7.3h1.1v1c0.5-0.8,1.3-1.2,2.3-1.2c0.4,0,0.8,0.1,1.2,0.2c0.4,0.2,0.6,0.4,0.8,0.6
		s0.3,0.6,0.4,0.9c0,0.2,0.1,0.6,0.1,1.2v4.5h-1.2v-4.4c0-0.5,0-0.9-0.1-1.1s-0.3-0.4-0.5-0.6c-0.2-0.1-0.5-0.2-0.9-0.2
		c-0.5,0-1,0.2-1.4,0.5c-0.4,0.3-0.6,1-0.6,1.9v4H36.4z"/>
</g>
<g>
	<g>
		<g>
			<circle fill="#555555" cx="128" cy="161.7" r="8.6"/>
			<circle fill="#FF0000" stroke="#000000" stroke-miterlimit="10" cx="96.3" cy="131.7" r="8.6"/>
			<circle fill="#555555" cx="159.6" cy="131.7" r="8.6"/>
			<circle fill="#662200" stroke="#000000" stroke-miterlimit="10" cx="171.2" cy="172" r="8.6"/>
			<circle fill="#560099" stroke="#000000" stroke-miterlimit="10" cx="139.5" cy="202.2" r="8.6"/>
			<circle stroke="#000000" stroke-miterlimit="10" cx="96.3" cy="192.2" r="8.6"/>
			<g>
				<path d="M83.5,195.9v2.2h-8.3c0.1-0.8,0.4-1.6,0.8-2.4c0.4-0.7,1.3-1.7,2.7-3c1.1-1,1.7-1.7,2-2c0.3-0.5,0.5-1,0.5-1.5
					c0-0.5-0.1-0.9-0.4-1.2s-0.7-0.4-1.2-0.4c-0.5,0-0.9,0.1-1.2,0.4c-0.3,0.3-0.5,0.8-0.5,1.5l-2.4-0.2c0.1-1.3,0.6-2.2,1.3-2.8
					c0.7-0.6,1.7-0.9,2.8-0.9c1.2,0,2.2,0.3,2.9,1c0.7,0.7,1,1.5,1,2.5c0,0.6-0.1,1.1-0.3,1.6c-0.2,0.5-0.5,1-0.9,1.6
					c-0.3,0.4-0.8,0.9-1.6,1.6s-1.2,1.1-1.4,1.4c-0.2,0.2-0.4,0.4-0.5,0.7H83.5z"/>
			</g>
			<g>
				<path d="M122.9,219.3l2.3-0.3c0.1,0.6,0.3,1,0.6,1.3c0.3,0.3,0.7,0.5,1.2,0.5c0.5,0,0.9-0.2,1.2-0.6c0.3-0.4,0.5-0.9,0.5-1.5
					c0-0.6-0.2-1.1-0.5-1.4c-0.3-0.3-0.7-0.5-1.2-0.5c-0.3,0-0.7,0.1-1.1,0.2l0.3-1.9c0.6,0,1.1-0.1,1.5-0.4
					c0.3-0.3,0.5-0.7,0.5-1.2c0-0.4-0.1-0.7-0.4-1c-0.2-0.2-0.6-0.4-1-0.4c-0.4,0-0.8,0.1-1,0.4s-0.5,0.7-0.5,1.2l-2.2-0.4
					c0.2-0.7,0.4-1.3,0.7-1.8s0.7-0.8,1.3-1.1c0.5-0.3,1.2-0.4,1.8-0.4c1.2,0,2.1,0.4,2.8,1.1c0.6,0.6,0.9,1.3,0.9,2.1
					c0,1.1-0.6,2-1.8,2.6c0.7,0.2,1.3,0.5,1.7,1c0.4,0.5,0.6,1.2,0.6,1.9c0,1.1-0.4,2-1.2,2.8s-1.8,1.1-3,1.1c-1.1,0-2-0.3-2.8-1
					C123.4,221.2,123,220.3,122.9,219.3z"/>
			</g>
			<g>
				<path d="M81.5,137.6h-2.4v-8.9c-0.9,0.8-1.9,1.4-3.1,1.8v-2.2c0.6-0.2,1.3-0.6,2-1.2c0.7-0.6,1.2-1.2,1.5-2h1.9V137.6z"/>
			</g>
			<g>
				<path d="M175.1,198.1v-2.5H170v-2.1l5.4-7.9h2v7.8h1.5v2.1h-1.5v2.5H175.1z M175.1,193.5v-4.2l-2.8,4.2H175.1z"/>
			</g>
			<g>
				<path d="M170.5,143.1l2.4-0.2c0.1,0.5,0.3,1,0.6,1.3c0.3,0.3,0.7,0.5,1.1,0.5c0.5,0,0.9-0.2,1.3-0.6s0.5-1,0.5-1.8
					c0-0.8-0.2-1.3-0.5-1.7s-0.8-0.6-1.3-0.6c-0.7,0-1.3,0.3-1.8,0.9l-1.9-0.3l1.2-6.4h6.3v2.2h-4.5l-0.4,2.1
					c0.5-0.3,1.1-0.4,1.6-0.4c1.1,0,1.9,0.4,2.7,1.1s1.1,1.8,1.1,3c0,1-0.3,1.9-0.9,2.7c-0.8,1.1-1.9,1.6-3.3,1.6
					c-1.1,0-2.1-0.3-2.8-0.9S170.6,144.1,170.5,143.1z"/>
			</g>
			<text transform="matrix(1 0 0 1 122.2263 149.1592)" font-family="'Arial-BoldMT'" font-size="17.2716px">6</text>
		</g>
	</g>
	<g>
		<path fill="none" stroke="#FFFFFF" stroke-miterlimit="10" d="M141.5,90.7c-1,6.8-6.8,12.1-13.9,12.1c-7.1,0-12.9-5.2-13.9-12
			C81,97.2,56.4,126,56.4,160.5c0,39.3,31.9,71.2,71.2,71.2s71.2-31.9,71.2-71.2C198.9,125.9,174.2,97.1,141.5,90.7z"/>
		<path fill="#DDDDDD" stroke="#000000" stroke-miterlimit="10" d="M128,74c-47.7,0-86.3,38.6-86.3,86.3c0,47.7,38.6,86.3,86.3,86.3
			s86.3-38.6,86.3-86.3C214.3,112.6,175.7,74,128,74z M127.7,231.8c-39.3,0-71.2-31.9-71.2-71.2c0-34.5,24.6-63.3,57.2-69.8
			c1,6.8,6.9,12,13.9,12c7.1,0,13-5.3,13.9-12.1c32.7,6.4,57.4,35.3,57.4,69.9C198.9,199.9,167,231.8,127.7,231.8z"/>
	</g>
</g>
<g>
	<path d="M207.1,20.7l1.3-0.2c0,0.3,0.2,0.6,0.3,0.8s0.4,0.3,0.7,0.3c0.3,0,0.5-0.1,0.7-0.3c0.2-0.2,0.3-0.5,0.3-0.9
		c0-0.3-0.1-0.6-0.3-0.8s-0.4-0.3-0.7-0.3c-0.2,0-0.4,0-0.6,0.1l0.2-1.1c0.4,0,0.7-0.1,0.8-0.2s0.3-0.4,0.3-0.7
		c0-0.2-0.1-0.4-0.2-0.6s-0.3-0.2-0.6-0.2c-0.2,0-0.4,0.1-0.6,0.2s-0.3,0.4-0.3,0.7l-1.3-0.2c0.1-0.4,0.2-0.8,0.4-1
		c0.2-0.3,0.4-0.5,0.7-0.6c0.3-0.1,0.7-0.2,1.1-0.2c0.7,0,1.2,0.2,1.6,0.6c0.3,0.4,0.5,0.7,0.5,1.2c0,0.6-0.3,1.1-1,1.5
		c0.4,0.1,0.7,0.3,1,0.6c0.2,0.3,0.4,0.7,0.4,1.1c0,0.6-0.2,1.2-0.7,1.6s-1,0.7-1.7,0.7c-0.6,0-1.2-0.2-1.6-0.6
		S207.2,21.3,207.1,20.7z"/>
	<path d="M213,22.6v-1.4h1.4v1.4H213z"/>
	<path d="M218.6,22.6v-7.2h3c0.8,0,1.3,0.1,1.7,0.2c0.3,0.1,0.6,0.4,0.8,0.7s0.3,0.7,0.3,1.1c0,0.5-0.2,1-0.5,1.3s-0.8,0.6-1.4,0.7
		c0.3,0.2,0.6,0.4,0.8,0.6c0.2,0.2,0.5,0.6,0.8,1.2l0.9,1.4h-1.7l-1-1.6c-0.4-0.6-0.6-0.9-0.8-1.1s-0.3-0.2-0.4-0.3
		s-0.4-0.1-0.7-0.1h-0.3v3H218.6z M220.1,18.5h1.1c0.7,0,1.1,0,1.3-0.1s0.3-0.2,0.4-0.3s0.1-0.3,0.1-0.5c0-0.2-0.1-0.4-0.2-0.6
		c-0.1-0.1-0.3-0.2-0.5-0.3c-0.1,0-0.5,0-1.1,0h-1.1V18.5z"/>
	<path d="M225.1,22.6l2.4-3.7l-2.2-3.4h1.7l1.4,2.3l1.4-2.3h1.7l-2.2,3.5l2.4,3.7H230l-1.6-2.5l-1.6,2.5H225.1z"/>
	<path d="M209.9,34.6v-1.4h-2.9V32l3.1-4.5h1.2V32h0.9v1.2h-0.9v1.4H209.9z M209.9,32v-2.4l-1.6,2.4H209.9z"/>
	<path d="M213,34.6v-1.4h1.4v1.4H213z"/>
	<path d="M220.2,34.6v-5.9h-2.1v-1.2h5.7v1.2h-2.1v5.9H220.2z"/>
	<path d="M224,34.6l2.4-3.7l-2.2-3.4h1.7l1.4,2.3l1.4-2.3h1.7l-2.2,3.5l2.4,3.7h-1.7l-1.6-2.5l-1.6,2.5H224z"/>
</g>
</svg>
